# xmcd CD database file
#
# Track frame offsets:
#	150
#	12677
#	23820
#	36735
#	55930
#	71035
#	79980
#	96750
#	105515
#	117600
#	137850
#	152990
#	164900
#	179775
#	195337
#	210550
#	221832
#	237550
#
# Disc length: 3782 seconds
#
# Revision: 0
# Processed by: cddbd v1.4PL0 Copyright (c) Steve Scherf et al.
# Submitted via: Feurio! 1.65 - http://www.feurio.com
#
DISCID=1f0ec412
DTITLE=Barry Goldberg - Goldberg and Friends
DYEAR=1968
DGENRE=Blues
TTITLE0=That's Allright Mama
TTITLE1=Maxwell Street Shuffle
TTITLE2=Hole In My Pocket
TTITLE3=It Hurts Me Too
TTITLE4=You're Still My Baby
TTITLE5=On The Road Again
TTITLE6=Sittin' In The Circles
TTITLE7=Capricorn Blues
TTITLE8=A Lighter Blue
TTITLE9=Twice A Man
TTITLE10=Fool On A Hill
TTITLE11=Sugar Coated Love
TTITLE12=Strung And Young
TTITLE13=The Answers In Your Head
TTITLE14=I Think I'm Gonna Cry
TTITLE15=Jimi The Fox
TTITLE16=Another Day
TTITLE17=Blues For Barry And ...
EXTD=ARD Sequel Records NEXCD 160 1968 Buddah Records
EXTT0=
EXTT1=
EXTT2=
EXTT3=
EXTT4=
EXTT5=
EXTT6=
EXTT7=
EXTT8=
EXTT9=
EXTT10=
EXTT11=
EXTT12=
EXTT13=
EXTT14=
EXTT15=
EXTT16=
EXTT17=
PLAYORDER=
